<svg enable-background="new 0 0 965.8 266.9" viewBox="0 0 965.8 266.9" xmlns="http://www.w3.org/2000/svg" xmlns:xlink="http://www.w3.org/1999/xlink"><clipPath id="a"><path d="m0 0h965.8v266.9h-965.8z"/></clipPath><path clip-path="url(#a)" clip-rule="evenodd" d="m70.8 212.4c-2.9 1.1-6.1 1.9-9.4 2.2-18.7 1.6-35.1-12.2-36.8-30.8-1.1-12.6 4.8-24.1 14.4-30.8-.6-3.2-1-6.6-1.3-9.9-5.3-60.5 39.4-113.9 99.9-119.2 47.6-4.2 90.7 22.6 109.5 63.6 2.5-1.2 5.2-1.9 8.1-2.2 13-1.1 24.5 8.5 25.7 21.5.7 8.2-2.8 15.8-8.8 20.6 5.3 7.3 8.7 16.1 9.6 25.8 2.5 28.6-18.7 53.9-47.3 56.4-2.7.2-5.3.3-8 .1-17.8 18.4-42 30.8-69.5 33.2-33.1 2.9-64-9.1-86.1-30.5m188-164.6c-7.4.7-12.9 7.2-12.2 14.6s7.2 12.9 14.6 12.2 12.9-7.2 12.2-14.6c-.6-7.3-7.1-12.8-14.6-12.2" fill="#65a7db" fill-rule="evenodd"/><path clip-path="url(#a)" clip-rule="evenodd" d="m184.1 207.4c-7.4-1.5-12.1-5.6-14.2-12.3-.6-1.7-1.4-8.3-2.6-19.7l-45.1-9.5c-5.5 9.8-9 15.4-10.3 16.8-4.6 5.3-10.5 7.2-17.8 5.7-5-1.1-8.9-3.7-11.9-7.9-3-4.1-3.9-8.8-2.7-13.9.4-2.3 1.5-4.7 3.2-7.3l58.8-93.6c3.1-4.9 7.2-8.6 12.2-11.2s10.3-3.3 16.1-2.1c11.7 2.4 18.5 10.3 20.4 23.6l15.1 109.1c.5 3.5.5 6.5.1 8.8-1.1 5-3.7 8.7-7.9 11.1-4.2 2.6-8.6 3.4-13.4 2.4m-24.8-108.3c-3.6 7.6-9.8 19-18.5 34.2l22.6 4.7z" fill="#fff" fill-rule="evenodd"/><path clip-path="url(#a)" clip-rule="evenodd" d="m350.9 87.4c13.2 0 24.6 4.8 34.1 14.4s14.3 21.2 14.3 35c0 13.7-4.7 25.2-14.1 34.6s-20.8 14.2-34.2 14.2c-14 0-25.7-4.9-35-14.6s-13.9-21.2-13.9-34.6c0-8.9 2.2-17.1 6.5-24.7 4.3-7.5 10.3-13.4 17.8-17.8 7.6-4.3 15.7-6.5 24.5-6.5m199.6 66.1h-55.7c.8 4.9 3 8.9 6.4 11.8 3.5 2.9 7.9 4.4 13.3 4.4 6.5 0 12-2.3 16.6-6.8l14.5 6.9c-3.6 5.2-8 9-13 11.5-5.1 2.5-11.1 3.7-18.1 3.7-10.8 0-19.6-3.4-26.4-10.2s-10.2-15.4-10.2-25.6c0-10.5 3.4-19.3 10.2-26.2 6.8-7 15.3-10.4 25.6-10.4 10.9 0 19.7 3.5 26.5 10.4s10.2 16.1 10.2 27.5zm-17.2-13.5c-1.1-3.8-3.4-6.9-6.8-9.2-3.4-2.4-7.3-3.5-11.8-3.5-4.8 0-9.1 1.3-12.7 4-2.3 1.6-4.4 4.6-6.4 8.8h37.7zm-124.6-25.9h17.3v7.1c3.9-3.3 7.5-5.6 10.7-6.9s6.5-1.9 9.8-1.9c6.9 0 12.7 2.4 17.5 7.2 4 4.1 6 10.1 6 18v45.6h-17.2v-30.2c0-8.2-.4-13.7-1.1-16.4s-2-4.8-3.9-6.2c-1.8-1.4-4.1-2.1-6.8-2.1-3.5 0-6.5 1.2-9.1 3.5-2.5 2.3-4.3 5.6-5.2 9.7-.5 2.2-.8 6.8-.8 14v27.7h-17.3v-69.1zm-58.1-9.3c-8.6 0-15.9 3-21.7 9-5.9 6-8.8 13.7-8.8 22.9 0 10.3 3.7 18.5 11.1 24.5 5.8 4.7 12.3 7.1 19.8 7.1 8.4 0 15.6-3.1 21.5-9.2s8.9-13.6 8.9-22.6c0-8.9-3-16.4-8.9-22.6-6.1-6-13.4-9.1-21.9-9.1" fill="#969697" fill-rule="evenodd"/><g fill="#65a7db"><path clip-path="url(#a)" d="m575.2 89.7h17.7v76.4h25.9v17h-43.6z"/><path clip-path="url(#a)" d="m699.6 153.6h-55.6c.8 4.9 3 8.8 6.4 11.7 3.5 2.9 7.9 4.3 13.4 4.3 6.5 0 12-2.3 16.7-6.8l14.6 6.9c-3.6 5.2-8 9-13.1 11.5s-11.1 3.7-18.1 3.7c-10.8 0-19.7-3.4-26.5-10.3-6.8-6.8-10.2-15.4-10.2-25.7 0-10.5 3.4-19.3 10.2-26.2 6.8-7 15.3-10.4 25.5-10.4 10.9 0 19.7 3.5 26.5 10.4 6.8 7 10.2 16.2 10.2 27.6zm-17.3-13.7c-1.1-3.9-3.4-7-6.8-9.4s-7.3-3.6-11.7-3.6c-4.8 0-9.1 1.4-12.7 4.1-2.3 1.7-4.4 4.7-6.4 9h37.6z"/><path clip-path="url(#a)" d="m764.6 114h17.4v69.1h-17.3v-7.3c-3.4 3.2-6.8 5.5-10.2 7-3.4 1.4-7.1 2.1-11.1 2.1-8.9 0-16.6-3.5-23.1-10.4s-9.8-15.5-9.8-25.8c0-10.7 3.1-19.4 9.4-26.2s13.9-10.2 23-10.2c4.1 0 8 .8 11.7 2.3 3.6 1.6 7 3.9 10.1 7v-7.6zm-18.2 14.2c-5.4 0-9.8 1.9-13.3 5.7s-5.3 8.6-5.3 14.6 1.8 10.9 5.4 14.7c3.6 3.9 8 5.8 13.3 5.8 5.4 0 10-1.9 13.5-5.7 3.6-3.8 5.4-8.7 5.4-14.9 0-6-1.8-10.9-5.4-14.6s-8.1-5.6-13.6-5.6"/><path clip-path="url(#a)" d="m795.4 114h14.9v8.7c1.6-3.4 3.7-6 6.4-7.8s5.6-2.7 8.8-2.7c2.2 0 4.6.6 7 1.8l-5.4 14.9c-2-1-3.7-1.5-5-1.5-2.7 0-4.9 1.6-6.8 5-1.8 3.3-2.8 9.8-2.8 19.4l.1 3.4v27.9h-17.2z"/><path clip-path="url(#a)" d="m841.1 114h17.3v7.1c3.9-3.3 7.5-5.6 10.7-6.9s6.5-1.9 9.8-1.9c6.8 0 12.7 2.4 17.4 7.2 4 4.1 6 10.1 6 18v45.6h-17.1v-30.2c0-8.2-.4-13.7-1.1-16.4s-2-4.8-3.9-6.2c-1.8-1.4-4.1-2.1-6.8-2.1-3.5 0-6.5 1.2-9 3.5s-4.3 5.6-5.2 9.7c-.5 2.2-.8 6.8-.8 14v27.7h-17.3z"/></g></svg>